<?xml version="1.0" encoding="utf-8"?>
<!-- Generator: Adobe Illustrator 23.0.1, SVG Export Plug-In . SVG Version: 6.00 Build 0)  -->
<svg version="1.1" id="Outline" xmlns="http://www.w3.org/2000/svg" xmlns:xlink="http://www.w3.org/1999/xlink" x="0px" y="0px"
	 viewBox="0 0 165.3 165.3" style="enable-background:new 0 0 165.3 165.3;" xml:space="preserve">
<style type="text/css">
	.st0{fill:#DFECFD;}
	.st1{fill:#759EFD;}
</style>
<circle class="st0" cx="82.7" cy="82.7" r="82.7"/>
<title>27 projects</title>
<path class="st1" d="M118.8,47.8c-4-3.4-9.4-4.8-14.5-3.8l-13.6,2.5c-3.1,0.6-6,2.2-8.1,4.6c-2.1-2.4-5-4-8.1-4.6L61,43.9
	c-9.6-1.8-18.9,4.6-20.6,14.2c-0.2,1.1-0.3,2.1-0.3,3.2v38.3c0,8.6,6.1,15.9,14.6,17.4l22.3,4.1c3.8,0.7,7.6,0.7,11.4,0l22.3-4.1
	c8.4-1.5,14.5-8.9,14.5-17.4V61.4C125.2,56.1,122.9,51.1,118.8,47.8z M79.1,114.3c-0.3,0-0.6-0.1-0.9-0.1l-22.3-4
	c-5.1-0.9-8.7-5.3-8.7-10.5V61.4c0-5.9,4.8-10.6,10.6-10.6c0.6,0,1.3,0.1,1.9,0.2l13.5,2.5c3.4,0.6,5.8,3.5,5.8,7V114.3z
	 M118.1,99.7c0,5.1-3.7,9.5-8.7,10.5l-22.3,4c-0.3,0.1-0.6,0.1-0.9,0.1v-54c0-3.4,2.5-6.4,5.8-7l13.5-2.5c5.8-1.1,11.3,2.8,12.4,8.6
	c0.1,0.6,0.2,1.3,0.2,1.9V99.7z"/>
</svg>
