<?xml version="1.0" encoding="utf-8"?>
<!-- Generator: Adobe Illustrator 23.0.1, SVG Export Plug-In . SVG Version: 6.00 Build 0)  -->
<svg version="1.1" id="Outline" xmlns="http://www.w3.org/2000/svg" xmlns:xlink="http://www.w3.org/1999/xlink" x="0px" y="0px"
	 viewBox="0 0 165.3 165.3" style="enable-background:new 0 0 165.3 165.3;" xml:space="preserve">
<style type="text/css">
	.st0{fill:#DFECFD;}
	.st1{fill:#759EFD;}
</style>
<circle class="st0" cx="82.7" cy="82.7" r="82.7"/>
<title>27 projects</title>
<g>
	<path class="st1" d="M74.8,85.9c-6.7,1.4-10,9.2-11.4,14.1c-0.5,1.6,0.4,3.3,1.9,3.8c0.3,0.1,0.6,0.1,0.9,0.1h10.7
		c4.8,0,8.7-4.1,8.7-9.1c0-0.3,0-0.6,0-0.8c-0.6-5.2-5.1-8.9-10-8.2C75.3,85.8,75.1,85.9,74.8,85.9z"/>
	<path class="st1" d="M114.4,73.5c-1.6,0-2.9,1.4-2.9,3v15.3H100c-4.8,0-8.7,4.1-8.7,9.1v12.2H62.5c-4.8,0-8.7-4.1-8.7-9.1V61.3
		c0-5,3.9-9.1,8.7-9.1h31.9c1.6,0,2.9-1.4,2.9-3s-1.3-3-2.9-3H62.5c-8,0-14.4,6.8-14.4,15.2V104c0,8.4,6.5,15.2,14.4,15.2h32.7
		c3.8,0,7.5-1.6,10.2-4.5l7.7-8.1c2.7-2.8,4.2-6.7,4.2-10.8V76.5C117.3,74.8,116,73.5,114.4,73.5z M101.3,110.4
		c-1.2,1.2-2.6,2.1-4.2,2.4v-11.9c0-1.7,1.3-3,2.9-3h11.3c-0.4,1.7-1.2,3.2-2.3,4.5L101.3,110.4z"/>
	<path class="st1" d="M90.1,89.3c-1.6,0-2.9-1.4-2.9-3c0-0.8,0.3-1.6,0.8-2.2l22.7-23.9c1.1-1.1,1.1-2.9,0-4.1c0,0,0,0,0,0
		c-0.5-0.6-1.3-0.9-2-0.8c-0.7,0-1.5,0.4-2,1L84.8,81.8c-1.1,1.2-2.9,1.3-4.1,0.2c-1.2-1.1-1.3-3.1-0.2-4.3l21.9-25.6
		c1.6-1.8,3.8-2.9,6.1-3c2.3-0.1,4.6,0.9,6.2,2.6c3.3,3.5,3.3,9.2,0,12.7L92.1,88.4C91.6,89,90.8,89.3,90.1,89.3z"/>
</g>
</svg>
