<?xml version="1.0" encoding="utf-8"?>
<!-- Generator: Adobe Illustrator 23.0.1, SVG Export Plug-In . SVG Version: 6.00 Build 0)  -->
<svg version="1.1" id="Outline" xmlns="http://www.w3.org/2000/svg" xmlns:xlink="http://www.w3.org/1999/xlink" x="0px" y="0px"
	 viewBox="0 0 165.3 165.3" style="enable-background:new 0 0 165.3 165.3;" xml:space="preserve">
<style type="text/css">
	.st0{fill:#DFECFD;}
	.st1{fill:#759EFD;}
</style>
<circle class="st0" cx="82.7" cy="82.7" r="82.7"/>
<title>27 projects</title>
<g>
	<path class="st1" d="M246.1,57c-6.7,1.4-10,9.2-11.4,14.1c-0.5,1.6,0.4,3.3,1.9,3.8c0.3,0.1,0.6,0.1,0.9,0.1h10.7
		c4.8,0,8.7-4.1,8.7-9.1c0-0.3,0-0.6,0-0.8c-0.6-5.2-5.1-8.9-10-8.2C246.5,57,246.3,57,246.1,57z"/>
	<path class="st1" d="M285.6,44.6c-1.6,0-2.9,1.4-2.9,3v15.3h-11.5c-4.8,0-8.7,4.1-8.7,9.1v12.2h-28.8c-4.8,0-8.7-4.1-8.7-9.1V32.5
		c0-5,3.9-9.1,8.7-9.1h31.9c1.6,0,2.9-1.4,2.9-3s-1.3-3-2.9-3h-31.9c-8,0-14.4,6.8-14.4,15.2v42.7c0,8.4,6.5,15.2,14.4,15.2h32.7
		c3.8,0,7.5-1.6,10.2-4.5l7.7-8.1c2.7-2.8,4.2-6.7,4.2-10.8V47.6C288.5,45.9,287.2,44.6,285.6,44.6z M272.6,81.6
		c-1.2,1.2-2.6,2.1-4.2,2.4V72.1c0-1.7,1.3-3,2.9-3h11.3c-0.4,1.7-1.2,3.2-2.3,4.5L272.6,81.6z"/>
	<path class="st1" d="M261.3,60.4c-1.6,0-2.9-1.4-2.9-3c0-0.8,0.3-1.6,0.8-2.2l22.7-23.9c1.1-1.1,1.1-2.9,0-4.1c0,0,0,0,0,0
		c-0.5-0.6-1.3-0.9-2-0.8c-0.7,0-1.5,0.4-2,1L256,52.9c-1.1,1.2-2.9,1.3-4.1,0.2c-1.2-1.1-1.3-3.1-0.2-4.3l21.9-25.6
		c1.6-1.8,3.8-2.9,6.1-3c2.3-0.1,4.6,0.9,6.2,2.6c3.3,3.5,3.3,9.2,0,12.7l-22.7,23.9C262.8,60.1,262.1,60.4,261.3,60.4z"/>
</g>
<path class="st1" d="M287.6,52.9c-4-3.4-9.4-4.8-14.5-3.8l-13.6,2.5c-3.1,0.6-6,2.2-8.1,4.6c-2.1-2.4-5-4-8.1-4.6l-13.5-2.5
	c-9.6-1.8-18.9,4.6-20.6,14.2c-0.2,1.1-0.3,2.1-0.3,3.2v38.3c0,8.6,6.1,15.9,14.6,17.4l22.3,4.1c3.8,0.7,7.6,0.7,11.4,0l22.3-4.1
	c8.4-1.5,14.5-8.9,14.5-17.4V66.5C294,61.2,291.6,56.2,287.6,52.9z M247.9,119.4c-0.3,0-0.6-0.1-0.9-0.1l-22.3-4
	c-5.1-0.9-8.7-5.3-8.7-10.5V66.5c0-5.9,4.8-10.6,10.6-10.6c0.6,0,1.3,0.1,1.9,0.2l13.5,2.5c3.4,0.6,5.8,3.5,5.8,7V119.4z
	 M286.9,104.8c0,5.1-3.7,9.5-8.7,10.5l-22.3,4c-0.3,0.1-0.6,0.1-0.9,0.1v-54c0-3.4,2.5-6.4,5.8-7l13.5-2.5
	c5.8-1.1,11.3,2.8,12.4,8.6c0.1,0.6,0.2,1.3,0.2,1.9V104.8z"/>
<path class="st1" d="M82.7,68.5c-7.8,0-14.2,6.3-14.2,14.2s6.3,14.2,14.2,14.2s14.2-6.3,14.2-14.2S90.5,68.5,82.7,68.5z M82.7,89.7
	c-3.9,0-7.1-3.2-7.1-7.1s3.2-7.1,7.1-7.1s7.1,3.2,7.1,7.1S86.6,89.7,82.7,89.7z"/>
<path class="st1" d="M115.6,89.4l-1.6-0.9c0.7-3.8,0.7-7.8,0-11.6l1.6-0.9c5.1-2.9,6.8-9.4,3.9-14.5c-2.9-5.1-9.4-6.8-14.5-3.9
	l-1.6,0.9c-3-2.5-6.4-4.5-10.1-5.8v-1.8c0-5.9-4.8-10.6-10.6-10.6S72,44.9,72,50.8v1.8c-3.7,1.3-7.1,3.3-10.1,5.8l-1.6-0.9
	c-5.1-2.9-11.6-1.2-14.5,3.9c-2.9,5.1-1.2,11.6,3.9,14.5l0,0l1.6,0.9c-0.7,3.8-0.7,7.8,0,11.6l-1.6,0.9c-5.1,2.9-6.8,9.4-3.9,14.5
	c2.9,5.1,9.4,6.8,14.5,3.9l0,0l1.6-0.9c3,2.5,6.4,4.5,10.1,5.8v1.8c0,5.9,4.8,10.6,10.6,10.6s10.6-4.8,10.6-10.6v-1.8
	c3.7-1.3,7.1-3.3,10.1-5.8l1.6,0.9c5.1,2.9,11.6,1.2,14.5-3.9C122.4,98.8,120.6,92.3,115.6,89.4L115.6,89.4L115.6,89.4z M106.5,76
	c1.2,4.3,1.2,8.9,0,13.3c-0.4,1.6,0.2,3.2,1.6,4l3.8,2.2c1.7,1,2.3,3.1,1.3,4.8c-1,1.7-3.1,2.3-4.8,1.3l0,0l-3.8-2.2
	c-1.4-0.8-3.2-0.6-4.3,0.6c-3.2,3.2-7.1,5.5-11.5,6.6c-1.6,0.4-2.7,1.8-2.7,3.4v4.4c0,2-1.6,3.5-3.5,3.5c-2,0-3.5-1.6-3.5-3.5v-4.4
	c0-1.6-1.1-3-2.7-3.4c-4.4-1.1-8.3-3.4-11.5-6.7c-1.1-1.2-2.9-1.4-4.3-0.6l-3.8,2.2c-1.7,1-3.9,0.4-4.8-1.3c-1-1.7-0.4-3.9,1.3-4.8
	c0,0,0,0,0,0l3.8-2.2c1.4-0.8,2.1-2.5,1.6-4c-1.2-4.3-1.2-8.9,0-13.3c0.4-1.6-0.3-3.2-1.6-4l-3.8-2.2c-1.7-1-2.3-3.1-1.3-4.8
	c1-1.7,3.1-2.3,4.8-1.3l3.8,2.2c1.4,0.8,3.2,0.6,4.3-0.6c3.2-3.2,7.1-5.5,11.5-6.6c1.6-0.4,2.7-1.8,2.7-3.4v-4.4
	c0-2,1.6-3.5,3.5-3.5s3.5,1.6,3.5,3.5v4.4c0,1.6,1.1,3,2.7,3.4c4.4,1.1,8.3,3.4,11.5,6.7c1.1,1.2,2.9,1.4,4.3,0.6l3.8-2.2
	c1.7-1,3.9-0.4,4.8,1.3c1,1.7,0.4,3.9-1.3,4.8c0,0,0,0,0,0l-3.8,2.2C106.8,72.8,106.1,74.5,106.5,76L106.5,76z"/>
</svg>
